<?xml version="1.0" encoding="UTF-8"?>
<svg width="428px" height="11px" viewBox="0 0 428 11" version="1.1" xmlns="http://www.w3.org/2000/svg" xmlns:xlink="http://www.w3.org/1999/xlink">
    <title>Group</title>
    <g id="Page-1" stroke="none" stroke-width="1" fill="none" fill-rule="evenodd">
        <g id="Artboard" transform="translate(-117.000000, -53.000000)" fill="#373333">
            <g id="Group" transform="translate(117.000000, 53.000000)">
                <path d="M213.978,3.198 C212.77,3.198 211.79,4.174 211.79,5.377 C211.79,6.581 212.77,7.556 213.978,7.556 C215.186,7.556 216.164,6.581 216.164,5.377 C216.164,4.174 215.186,3.198 213.978,3.198" id="Fill-8782"></path>
                <path d="M213.978,8.889 C212.031,8.889 210.453,7.317 210.453,5.377 C210.453,3.438 212.031,1.866 213.978,1.866 C215.924,1.866 217.502,3.438 217.502,5.377 C217.502,7.317 215.924,8.889 213.978,8.889 Z" id="Path"></path>
                <path d="M213.978,0 C211.006,0 208.588,2.412 208.588,5.377 C208.588,8.343 211.006,10.755 213.978,10.755 C216.949,10.755 219.367,8.343 219.367,5.377 C219.367,2.412 216.949,0 213.978,0 L213.978,0 Z" id="Path"></path>
                <path d="M21.393,5.14 C20.43,5.14 19.466,4.859 18.694,4.269 C18.13,3.834 17.615,3.245 17.358,2.439 C16.703,3.502 15.714,4.18 14.712,4.603 C13.17,3.911 11.32,2.644 10.587,0.404 C9.071,2.887 6.425,4.129 4.163,4.757 C1.889,5.371 -7.10542736e-15,5.371 -7.10542736e-15,5.371 C-7.10542736e-15,5.371 1.889,5.371 4.163,5.998 C6.425,6.613 9.071,7.855 10.587,10.351 C11.32,8.111 13.17,6.843 14.712,6.139 C15.714,6.575 16.703,7.253 17.358,8.316 C17.551,7.714 17.886,7.227 18.27,6.843 C19.105,6.024 20.249,5.614 21.419,5.614 L21.393,5.14" id="Fill-8784"></path>
                <polygon id="Fill-8785" points="16.905 6.31 210.453 6.31 210.453 4.444 16.905 4.444"></polygon>
                <path d="M423.792,4.757 C421.53,4.129 418.884,2.887 417.368,0.404 C416.635,2.644 414.785,3.911 413.243,4.603 C412.241,4.18 411.251,3.502 410.597,2.439 C410.339,3.245 409.825,3.834 409.26,4.269 C408.489,4.859 407.526,5.14 406.562,5.14 L406.536,5.614 C407.705,5.614 408.85,6.024 409.685,6.843 C410.069,7.227 410.404,7.714 410.597,8.316 C411.251,7.253 412.241,6.575 413.243,6.139 C414.785,6.843 416.635,8.111 417.368,10.351 C418.884,7.855 421.53,6.613 423.792,5.998 C426.067,5.371 427.955,5.371 427.955,5.371 C427.955,5.371 426.067,5.371 423.792,4.757" id="Fill-8786"></path>
                <polygon id="Fill-8787" points="217.501 6.31 411.05 6.31 411.05 4.444 217.501 4.444"></polygon>
            </g>
        </g>
    </g>
</svg>