<svg xmlns="http://www.w3.org/2000/svg" xml:space="preserve" viewBox="0 0 512 512">
  <path fill="rgba(0,0,0,0.7)" stroke="rgba(0,0,0,0.7)" stroke-width="12px" d="M467 76H45C20.24 76 0 96.15 0 121v270c0 24.86 20.25 45 45 45h422c24.76 0 45-20.15 45-45V121c0-24.86-20.25-45-45-45zm-6.91 30L267.62 299.1c-5.86 5.88-17.38 5.88-23.24 0L51.9 106h408.18zM30 385.49V126.5L159.06 256 30 385.49zM51.91 406l128.33-128.75 42.89 43.02c17.57 17.63 48.17 17.63 65.74 0l42.89-43.02L460.09 406H51.91zM482 385.49 352.94 256 482 126.51V385.5z"/>
</svg>
