<svg xmlns="http://www.w3.org/2000/svg" xml:space="preserve" x="0" y="0" version="1.1" viewBox="0 0 157.7 163.6">
  <g fill="rgb(70, 52, 204)" fill-opacity=".5">
    <path d="M-277-311.7c0-3.9 3.2-7.8 9.5-11.8 6.3-4 13.4-6 21.2-6 2.5 0 5 .3 7.6.8 2.6.5 5.6 1.4 8.9 2.7s6.1 3.5 8.4 6.7c2.3 3.2 3.7 7.1 4.2 11.6.3 3.1.4 5.5.4 7.2v39.5c0 2.3.5 4.2 1.4 5.7.9 1.4 1.8 2.3 2.7 2.6.9.3 1.8.5 2.7.5 1.8 0 3.3-.6 4.3-1.7s1.9-2.2 2.4-3.3 1.3-1.7 2.1-1.7c1.2 0 1.8.8 1.8 2.5 0 3.1-1.4 6.5-4.3 10.3-2.9 3.7-6.6 5.6-11.1 5.6-1.7 0-3.3-.3-4.9-.8s-2.9-1.2-3.9-2.1c-1-.8-2-1.7-2.8-2.4l-2.1-2.1-.6-.8c-.1 0-.2 0-.2-.1s-.1-.1-.2-.1c-.3 0-.5.1-.6.4-.1.3-.6.8-1.4 1.6s-1.9 1.6-3.3 2.5c-5.9 3.6-12 5.5-18.6 5.5-6.8 0-12.3-2.1-16.5-6.4-4.2-4.3-6.3-9.6-6.3-15.8v-.2c0-7.6 2.8-13.5 8.4-17.8 2-1.6 4.5-3 7.6-4.2s6.2-2.2 9.3-2.8c3.1-.7 6-1.2 8.7-1.7s5-.7 6.8-.9l2.7-.2c1-.3 1.6-1.2 1.6-2.7v-7.2c0-6.9-1.6-12.2-4.7-16-3.3-3.5-7.2-5.3-11.7-5.3-7 0-12.8 4.4-17.2 13.3a5.11 5.11 0 0 1-4.3 2.3c-2.1 0-3.9-.7-5.6-2-1.6-1.3-2.4-3-2.4-5.2m28.4 61.9c3 0 5.8-.7 8.5-2s4.5-2.5 5.6-3.5c1-1 1.9-2 2.5-2.7.8-1 1.2-2.5 1.2-4.5v-13.1c0-2.5-.1-4.1-.3-4.8s-.7-1.1-1.7-1.1c-3.3 0-7.3.5-12.2 1.6s-8.8 2.9-11.6 5.7c-3.1 2.6-4.7 6.2-4.7 10.9 0 4.9 1.4 8.6 4.1 10.9 1.8 1.7 4.6 2.6 8.6 2.6z" transform="translate(320 329.5)"/>
    <path d="M-370.9 21c0-3.9 3.2-7.8 9.5-11.8 6.3-4 13.4-6 21.2-6 2.5 0 5 .3 7.6.8 2.6.5 5.6 1.4 8.9 2.7s6.1 3.5 8.4 6.7c2.3 3.2 3.7 7.1 4.2 11.6.3 3.1.4 5.5.4 7.2v39.5c0 2.3.5 4.2 1.4 5.7.9 1.4 1.8 2.3 2.7 2.6.9.3 1.8.5 2.7.5 1.8 0 3.3-.6 4.3-1.7s1.9-2.2 2.4-3.3c.6-1.1 1.3-1.7 2.1-1.7 1.2 0 1.8.8 1.8 2.5 0 3.1-1.4 6.5-4.3 10.3-2.9 3.7-6.6 5.6-11.1 5.6-1.7 0-3.3-.3-4.9-.8s-2.9-1.2-3.9-2.1c-1-.8-2-1.7-2.8-2.4s-1.5-1.5-2.1-2.1l-.6-.8c-.1 0-.2 0-.2-.1s-.1-.1-.2-.1c-.3 0-.5.1-.6.4-.1.3-.6.8-1.4 1.6s-1.9 1.6-3.3 2.5c-5.9 3.6-12 5.5-18.6 5.5-6.8 0-12.3-2.1-16.5-6.4-4.2-4.3-6.3-9.6-6.3-15.8v-.2c0-7.6 2.8-13.5 8.4-17.8 2-1.6 4.5-3 7.6-4.2s6.2-2.2 9.3-2.8c3.1-.7 6-1.2 8.7-1.7s5-.7 6.8-.9l2.7-.2c1-.3 1.6-1.2 1.6-2.7v-7.2c0-6.9-1.6-12.2-4.7-16-3.3-3.5-7.2-5.3-11.7-5.3-7 0-12.8 4.4-17.2 13.3a5.11 5.11 0 0 1-4.3 2.3c-2.1 0-3.9-.7-5.6-2-1.6-1.3-2.4-3-2.4-5.2m28.3 61.9c3 0 5.8-.7 8.5-2s4.5-2.5 5.6-3.5 1.9-2 2.5-2.7c.8-1 1.2-2.5 1.2-4.5V57.1c0-2.5-.1-4.1-.3-4.8-.2-.7-.7-1.1-1.7-1.1-3.3 0-7.3.5-12.2 1.6-4.9 1-8.8 2.9-11.6 5.7-3.1 2.6-4.7 6.3-4.7 10.9 0 4.9 1.4 8.6 4.1 10.9 1.8 1.7 4.7 2.6 8.6 2.6z" transform="rotate(60 -125.36 441.88)"/>
    <path d="M-129.8 268.7c0-3.9 3.2-7.8 9.5-11.8 6.3-4 13.4-6 21.2-6 2.5 0 5 .3 7.6.8 2.6.5 5.6 1.4 8.9 2.7 3.3 1.3 6.1 3.5 8.4 6.7 2.3 3.2 3.7 7.1 4.2 11.6.3 3.1.4 5.5.4 7.2v39.5c0 2.3.5 4.2 1.4 5.7.9 1.4 1.8 2.3 2.7 2.6.9.3 1.8.5 2.7.5 1.8 0 3.3-.6 4.3-1.7s1.9-2.2 2.4-3.3 1.3-1.7 2.1-1.7c1.2 0 1.8.8 1.8 2.5 0 3.1-1.4 6.5-4.3 10.3s-6.6 5.6-11.1 5.6c-1.7 0-3.3-.3-4.9-.8-1.6-.5-2.9-1.2-3.9-2.1-1-.8-2-1.7-2.8-2.4l-2.1-2.1-.6-.8c-.1 0-.2 0-.2-.1s-.1-.1-.2-.1c-.3 0-.5.1-.6.4s-.6.8-1.4 1.6-1.9 1.6-3.3 2.5c-5.9 3.6-12 5.5-18.6 5.5-6.8 0-12.3-2.1-16.5-6.4s-6.3-9.6-6.3-15.8v-.2c0-7.6 2.8-13.5 8.4-17.8 2-1.6 4.5-3 7.6-4.2s6.2-2.2 9.3-2.8c3.1-.7 6-1.2 8.7-1.7 2.7-.5 5-.7 6.8-.9l2.7-.2c1-.3 1.6-1.2 1.6-2.7v-7.2c0-6.9-1.6-12.2-4.7-16-3.3-3.5-7.2-5.3-11.7-5.3-7 0-12.8 4.4-17.2 13.3a5.11 5.11 0 0 1-4.3 2.3c-2.1 0-3.9-.7-5.6-2-1.6-1.3-2.4-3-2.4-5.2m28.3 61.9c3 0 5.8-.7 8.5-2s4.5-2.5 5.6-3.5c1-1 1.9-2 2.5-2.7.8-1 1.2-2.5 1.2-4.5v-13.1c0-2.5-.1-4.1-.3-4.8s-.7-1.1-1.7-1.1c-3.3 0-7.3.5-12.2 1.6-4.9 1-8.8 2.9-11.6 5.7-3.1 2.6-4.7 6.2-4.7 10.9 0 4.9 1.4 8.6 4.1 10.9 1.8 1.7 4.7 2.6 8.6 2.6z" transform="rotate(120 64.88 257.13)"/>
    <path d="M205.3 183.7c0-3.9 3.2-7.8 9.5-11.8 6.3-4 13.4-6 21.2-6 2.5 0 5 .3 7.6.8 2.6.5 5.6 1.4 8.9 2.7s6.1 3.5 8.4 6.7c2.3 3.2 3.7 7.1 4.2 11.6.3 3.1.4 5.5.4 7.2v39.5c0 2.3.5 4.2 1.4 5.7.9 1.4 1.8 2.3 2.7 2.6.9.3 1.8.5 2.7.5 1.8 0 3.3-.6 4.3-1.7s1.9-2.2 2.4-3.3 1.3-1.7 2.1-1.7c1.2 0 1.8.8 1.8 2.5 0 3.1-1.4 6.5-4.3 10.3-2.9 3.7-6.6 5.6-11.1 5.6-1.7 0-3.3-.3-4.9-.8s-2.9-1.2-3.9-2.1c-1-.8-2-1.7-2.8-2.4l-2.1-2.1-.6-.8c-.1 0-.2 0-.2-.1s-.1-.1-.2-.1c-.3 0-.5.1-.6.4-.1.3-.6.8-1.4 1.6s-1.9 1.6-3.3 2.5c-5.9 3.6-12 5.5-18.6 5.5-6.8 0-12.3-2.1-16.5-6.4-4.2-4.3-6.3-9.6-6.3-15.8v-.2c0-7.6 2.8-13.5 8.4-17.8 2-1.6 4.5-3 7.6-4.2s6.2-2.2 9.3-2.8c3.1-.7 6-1.2 8.7-1.7s5-.7 6.8-.9l2.7-.2c1-.3 1.6-1.2 1.6-2.7v-7.2c0-6.9-1.6-12.2-4.7-16-3.3-3.5-7.2-5.3-11.7-5.3-7 0-12.8 4.4-17.2 13.3a5.11 5.11 0 0 1-4.3 2.3c-2.1 0-3.9-.7-5.6-2-1.6-1.2-2.4-3-2.4-5.2m28.3 61.9c3 0 5.8-.7 8.5-2s4.5-2.5 5.6-3.5c1-1 1.9-2 2.5-2.7.8-1 1.2-2.5 1.2-4.5v-13.1c0-2.5-.1-4.1-.3-4.8s-.7-1.1-1.7-1.1c-3.3 0-7.3.5-12.2 1.6s-8.8 2.9-11.6 5.7c-3.1 2.6-4.7 6.2-4.7 10.9 0 4.9 1.4 8.6 4.1 10.9 1.8 1.8 4.7 2.6 8.6 2.6z" transform="rotate(180 160 164.75)"/>
    <path d="M299.3-149c0-3.9 3.2-7.8 9.5-11.8 6.3-4 13.4-6 21.2-6 2.5 0 5 .3 7.6.8 2.6.5 5.6 1.4 8.9 2.7 3.3 1.3 6.1 3.5 8.4 6.7 2.3 3.2 3.7 7.1 4.2 11.6.3 3.1.4 5.5.4 7.2v39.5c0 2.3.5 4.2 1.4 5.7.9 1.4 1.8 2.3 2.7 2.6.9.3 1.8.5 2.7.5 1.8 0 3.3-.6 4.3-1.7s1.9-2.2 2.4-3.3c.6-1.1 1.3-1.7 2.1-1.7 1.2 0 1.8.8 1.8 2.5 0 3.1-1.4 6.5-4.3 10.3-2.9 3.7-6.6 5.6-11.1 5.6-1.7 0-3.3-.3-4.9-.8-1.6-.5-2.9-1.2-3.9-2.1-1-.8-2-1.7-2.8-2.4l-2.1-2.1-.6-.8c-.1 0-.2 0-.2-.1s-.1-.1-.2-.1c-.3 0-.5.1-.6.4-.1.3-.6.8-1.4 1.6s-1.9 1.6-3.3 2.5c-5.9 3.6-12 5.5-18.6 5.5-6.8 0-12.3-2.1-16.5-6.4-4.2-4.3-6.3-9.6-6.3-15.8v-.2c0-7.6 2.8-13.5 8.4-17.8 2-1.6 4.5-3 7.6-4.2 3.1-1.2 6.2-2.2 9.3-2.8 3.1-.7 6-1.2 8.7-1.7s5-.7 6.8-.9l2.7-.2c1-.3 1.6-1.2 1.6-2.7v-7.2c0-6.9-1.6-12.2-4.7-16-3.3-3.5-7.2-5.3-11.7-5.3-7 0-12.8 4.4-17.2 13.3a5.11 5.11 0 0 1-4.3 2.3c-2.1 0-3.9-.7-5.6-2s-2.4-2.9-2.4-5.2m28.3 62c3 0 5.8-.7 8.5-2s4.5-2.5 5.6-3.5c1-1 1.9-2 2.5-2.7.8-1 1.2-2.5 1.2-4.5v-13.1c0-2.5-.1-4.1-.3-4.8-.2-.7-.7-1.1-1.7-1.1-3.3 0-7.3.5-12.2 1.6s-8.8 2.9-11.6 5.7c-3.1 2.6-4.7 6.2-4.7 10.9 0 4.9 1.4 8.6 4.1 10.9 1.8 1.7 4.7 2.6 8.6 2.6z" transform="rotate(-120 255.12 72.37)"/>
    <path d="M58.1-396.7c0-3.9 3.2-7.8 9.5-11.8 6.3-4 13.4-6 21.2-6 2.5 0 5 .3 7.6.8 2.6.5 5.6 1.4 8.9 2.7s6.1 3.5 8.4 6.7 3.7 7.1 4.2 11.6c.3 3.1.4 5.5.4 7.2v39.5c0 2.3.5 4.2 1.4 5.7.9 1.4 1.8 2.3 2.7 2.6.9.3 1.8.5 2.7.5 1.8 0 3.3-.6 4.3-1.7s1.9-2.2 2.4-3.3c.6-1.1 1.3-1.7 2.1-1.7 1.2 0 1.8.8 1.8 2.5 0 3.1-1.4 6.5-4.3 10.3-2.9 3.7-6.6 5.6-11.1 5.6-1.7 0-3.3-.3-4.9-.8-1.6-.5-2.9-1.2-3.9-2.1-1-.8-2-1.7-2.8-2.4l-2.1-2.1-.6-.8c-.1 0-.2 0-.2-.1s-.1-.1-.2-.1c-.3 0-.5.1-.6.4-.1.3-.6.8-1.4 1.6s-1.9 1.6-3.3 2.5c-5.9 3.6-12 5.5-18.6 5.5-6.8 0-12.3-2.1-16.5-6.4s-6.3-9.6-6.3-15.8v-.2c0-7.6 2.8-13.5 8.4-17.8 2-1.6 4.5-3 7.6-4.2 3.1-1.2 6.2-2.2 9.3-2.8 3.1-.7 6-1.2 8.7-1.7 2.7-.5 5-.7 6.8-.9l2.7-.2c1-.3 1.6-1.2 1.6-2.7v-7.2c0-6.9-1.6-12.2-4.7-16-3.3-3.5-7.2-5.3-11.7-5.3-7 0-12.8 4.4-17.2 13.3a5.11 5.11 0 0 1-4.3 2.3c-2.1 0-3.9-.7-5.6-2-1.6-1.2-2.4-3-2.4-5.2m28.4 61.9c3 0 5.8-.7 8.5-2s4.5-2.5 5.6-3.5c1-1 1.9-2 2.5-2.7.8-1 1.2-2.5 1.2-4.5v-13.1c0-2.5-.1-4.1-.3-4.8-.2-.7-.7-1.1-1.7-1.1-3.3 0-7.3.5-12.2 1.6-4.9 1-8.8 2.9-11.6 5.7-3.1 2.6-4.7 6.2-4.7 10.9 0 4.9 1.4 8.6 4.1 10.9 1.8 1.8 4.6 2.6 8.6 2.6z" transform="rotate(-60 445.36 -112.38)"/>
  </g>
</svg>
